<svg width="46" height="46" viewBox="0 0 46 46" fill="none" xmlns="http://www.w3.org/2000/svg">
<circle cx="22.6829" cy="22.6829" r="22.6829" fill="#FF8A16"/>
<path d="M21.488 33.548V30.948C19.1653 30.688 17.094 29.83 15.274 28.374L16.938 26.008C18.498 27.2733 20.0233 28.0187 21.514 28.244V23.148C19.5553 22.6453 18.134 21.9867 17.25 21.172C16.3833 20.34 15.95 19.2047 15.95 17.766C15.95 16.3793 16.4613 15.244 17.484 14.36C18.5067 13.4587 19.8413 12.9387 21.488 12.8V11.292H23.594V12.852C25.4487 13.0773 27.104 13.736 28.56 14.828L27.104 17.272C25.9773 16.4227 24.7987 15.868 23.568 15.608V20.548C25.544 21.0507 26.974 21.7267 27.858 22.576C28.7593 23.4253 29.21 24.552 29.21 25.956C29.21 27.36 28.69 28.5127 27.65 29.414C26.6273 30.3153 25.2753 30.8353 23.594 30.974V33.548H21.488ZM21.514 20.002V15.426C20.7167 15.4953 20.1013 15.7293 19.668 16.128C19.2347 16.5267 19.018 17.0293 19.018 17.636C19.018 18.208 19.1913 18.676 19.538 19.04C19.902 19.404 20.5607 19.7247 21.514 20.002ZM23.568 28.348C24.3827 28.2787 25.0153 28.0533 25.466 27.672C25.9167 27.2733 26.142 26.7447 26.142 26.086C26.142 25.4967 25.9513 25.02 25.57 24.656C25.206 24.2747 24.5387 23.9367 23.568 23.642V28.348Z" fill="white"/>
</svg>
