<svg width="46" height="46" viewBox="0 0 46 46" fill="none" xmlns="http://www.w3.org/2000/svg">
<circle cx="22.6829" cy="22.6829" r="22.6829" fill="#DC2B7C"/>
<path d="M24.284 31.312C22.3947 31.312 20.7827 30.7573 19.448 29.648C18.1307 28.5213 17.2207 27.022 16.718 25.15H14.352V22.94H16.354C16.3367 22.7147 16.328 22.368 16.328 21.9C16.328 21.3627 16.3453 20.9727 16.38 20.73H14.352V18.52H16.796C17.3333 16.7173 18.252 15.2613 19.552 14.152C20.852 13.0427 22.3947 12.488 24.18 12.488C25.6533 12.488 26.884 12.7913 27.872 13.398C28.8773 13.9873 29.7613 14.828 30.524 15.92L28.106 17.714C27.5167 16.8993 26.9187 16.3013 26.312 15.92C25.7053 15.5387 24.9687 15.348 24.102 15.348C23.2007 15.348 22.3947 15.634 21.684 16.206C20.9907 16.7607 20.462 17.532 20.098 18.52H25.688V20.73H19.604C19.5693 21.1807 19.552 21.5707 19.552 21.9C19.552 22.1427 19.5693 22.4893 19.604 22.94H25.688V25.15H20.072C20.436 26.1727 20.982 26.9787 21.71 27.568C22.438 28.1573 23.3047 28.452 24.31 28.452C25.1247 28.452 25.8267 28.2527 26.416 27.854C27.0053 27.4553 27.6293 26.8313 28.288 25.982L30.576 27.646C29.7613 28.8247 28.8513 29.7347 27.846 30.376C26.858 31 25.6707 31.312 24.284 31.312Z" fill="white"/>
</svg>
