<svg width="46" height="46" viewBox="0 0 46 46" fill="none" xmlns="http://www.w3.org/2000/svg">
<circle cx="22.6829" cy="22.6829" r="22.6829" fill="#E41F18"/>
<path d="M18.522 31V12.436H23.41C25.6807 12.436 27.362 12.8953 28.454 13.814C29.5633 14.7327 30.118 16.0673 30.118 17.818C30.118 18.9967 29.8493 20.0107 29.312 20.86C28.7747 21.692 27.9773 22.3333 26.92 22.784C25.88 23.2347 24.5887 23.46 23.046 23.46H20.862V31H18.522ZM16.26 27.464V25.774H25.152V27.464H16.26ZM16.26 23.46V21.484H22.214V23.46H16.26ZM22.708 21.484C23.7653 21.484 24.658 21.3713 25.386 21.146C26.1313 20.9207 26.7033 20.548 27.102 20.028C27.5007 19.508 27.7 18.7973 27.7 17.896C27.7 16.7173 27.336 15.842 26.608 15.27C25.88 14.698 24.7447 14.412 23.202 14.412H20.862V21.484H22.708Z" fill="white"/>
</svg>
