<svg width="32" height="26" viewBox="0 0 32 26" fill="none" xmlns="http://www.w3.org/2000/svg">
<path d="M28.2306 4.09965C29.602 3.27961 30.6281 1.98837 31.1173 0.46701C29.8287 1.2318 28.4188 1.77053 26.9487 2.05993C24.9103 -0.0968189 21.6809 -0.621672 19.0648 0.77864C16.4487 2.17895 15.0936 5.15776 15.7568 8.05057C10.4784 7.78551 5.56071 5.29153 2.22736 1.18925C0.487756 4.19058 1.37673 8.02729 4.25892 9.95717C3.21669 9.92366 2.19757 9.6414 1.28655 9.13394C1.28655 9.16148 1.28655 9.18902 1.28655 9.21657C1.28715 12.343 3.49 15.036 6.55359 15.6556C5.58687 15.9186 4.57284 15.9574 3.58887 15.7688C4.45044 18.4424 6.91393 20.2741 9.72177 20.3287C7.39624 22.1544 4.5243 23.1445 1.56803 23.1397C1.04403 23.1404 0.520448 23.1103 0 23.0494C3.00203 24.979 6.49602 26.0032 10.0644 25.9996C15.029 26.0337 19.8 24.076 23.3104 20.5644C26.8208 17.0528 28.7776 12.2804 28.7431 7.31456C28.7431 7.02994 28.7365 6.74686 28.7232 6.46531C30.0089 5.53588 31.1186 4.38449 32 3.06525C30.8022 3.59632 29.5317 3.94499 28.2306 4.09965Z" fill="#FF8A16"/>
</svg>
